<svg xmlns="http://www.w3.org/2000/svg" viewBox="0 0 430.97 94.76"><defs><style>.cls-1{fill:#ffc0a9;}.cls-2{fill:#d63d4f;}.cls-3{fill:#404041;}.cls-4{fill:#808081;}</style></defs><g id="Layer_2" data-name="Layer 2"><g id="full_en"><g id="mark"><path class="cls-1" d="M92.48,35.8l-16-23.14L51,0,51,0,20.57,8.83H20.4L4.52,27.7l-.06.06v.16L0,58.81V59L16,82.1,41.5,94.73l.24,0,30-8.83h.17L87.82,67.06l.06-.07v-.24l4.55-30.14m-8.29,3.88-8.26-24L91.43,35.88ZM13.38,57.83,5,34.26l20.07-5.1Zm.24.73.16-.15.32-.33L25.86,29.43l13,24.46Zm25.5-3.72L38.5,80.21,14.39,59.43ZM26.63,29l31.58,2.89L39.62,53.44Zm32.69,1.78L47.12,9.43l26.55,5ZM74.42,15l8.79,25.37L60.07,31.29ZM66.54,63.34,40.28,54.05,59,32.48ZM58.35,31,26.94,28.12,46.11,9.58ZM40,54.89l26.22,9.28L39.46,80.29ZM66.79,65l-1.7,21-24.83-5ZM59.92,32.27l23.31,9.18L67.57,63ZM76.05,13.53l9.75,14L75.25,14.15ZM75.18,13l-.69.57L61.22,6ZM72,13.12,46.93,8.43l4-7.46Zm-22.24-12L45.92,8.37,24,8.71ZM45.07,9.25,26.13,27.57l-4.91-18ZM20.42,10.34l4.9,17.8L5.46,33.22ZM5.24,28.15l12-14.36L4.77,32.47Zm-.62,7.69,8.1,22.8L.92,58.38ZM1.21,59.35l11.65.27,2.71,20.5Zm12.67.92L37.71,80.8l-21.06.71Zm4.2,22.09,20.45-.7,2.46,12ZM42,94,39.52,81.81l24.09,4.86Zm29.52-8.74-4.72.63L84.18,70.29Zm-5.61.1,1.78-20.77,18.81,2.59Zm2.19-21.62L83.56,42.45,87,66.32Zm19.41.06-3-22.33,7.11-4.54Z"/><path class="cls-2" d="M16.73,57.79a3.88,3.88,0,0,0-2.15-2.08,3.9,3.9,0,0,0-5,5.18A3.87,3.87,0,0,0,11.71,63a3.94,3.94,0,0,0,3,0,3.9,3.9,0,0,0,2-5.13Z"/><path class="cls-2" d="M62.45,28.29a4.7,4.7,0,0,0-6.1,7.14,4.6,4.6,0,0,0,3,1.12l.39,0a4.7,4.7,0,0,0,2.7-8.24Z"/><path class="cls-2" d="M77.36,13.42a3.11,3.11,0,1,0-2.85,4.35,3,3,0,0,0,1.24-.26A3.11,3.11,0,0,0,77.36,13.42Z"/><path class="cls-2" d="M42.87,52.81a3.12,3.12,0,0,0-4.1-1.61,3.12,3.12,0,0,0,.1,5.75,3.21,3.21,0,0,0,1.14.22,3.17,3.17,0,0,0,1.24-.26A3.13,3.13,0,0,0,42.87,52.81Z"/><path class="cls-2" d="M86.8,39.7a3.11,3.11,0,1,0-4,4.13,3.05,3.05,0,0,0,1.15.22,3.17,3.17,0,0,0,1.24-.26A3.12,3.12,0,0,0,86.8,39.7Z"/></g><path class="cls-3" d="M129.28,18.39a1.49,1.49,0,0,1-.28.78,1.08,1.08,0,0,1-.89.43,1.18,1.18,0,0,1-.63-.19,12.08,12.08,0,0,0-6.82-2.07,11.19,11.19,0,0,0-5.72,1.48,10.56,10.56,0,0,0-4,4.16A12.35,12.35,0,0,0,109.46,29,12.43,12.43,0,0,0,111,35.18a10.56,10.56,0,0,0,4,4.14,11.28,11.28,0,0,0,5.68,1.46,12.08,12.08,0,0,0,6.78-2,1.24,1.24,0,0,1,.67-.19A1.06,1.06,0,0,1,129,39a1.12,1.12,0,0,1,.28.75,1,1,0,0,1-.55.93A14.27,14.27,0,0,1,125,42.4a14.94,14.94,0,0,1-4.33.68,13.74,13.74,0,0,1-6.85-1.77,13.18,13.18,0,0,1-5-5A14.22,14.22,0,0,1,107,29a14.23,14.23,0,0,1,1.83-7.16A13.38,13.38,0,0,1,120.66,15a15.05,15.05,0,0,1,4.27.62,13.68,13.68,0,0,1,3.76,1.76A1.09,1.09,0,0,1,129.28,18.39Z"/><path class="cls-3" d="M137.7,42.34a1.18,1.18,0,0,1-.86.35,1.2,1.2,0,0,1-.88-.33,1.18,1.18,0,0,1-.33-.88V16.6a1.17,1.17,0,0,1,.35-.88,1.28,1.28,0,0,1,.9-.33,1.2,1.2,0,0,1,1.21,1.21V41.48A1.35,1.35,0,0,1,137.7,42.34Z"/><path class="cls-3" d="M169.45,36.26a12.83,12.83,0,0,1-22.78,0A15.31,15.31,0,0,1,145,29a15.35,15.35,0,0,1,1.68-7.25,12.52,12.52,0,0,1,4.64-5,13.6,13.6,0,0,1,13.49,0,12.54,12.54,0,0,1,4.65,5A15.47,15.47,0,0,1,171.12,29,15.43,15.43,0,0,1,169.45,36.26ZM167.28,23a10.28,10.28,0,0,0-18.45,0A13.37,13.37,0,0,0,147.49,29a13.37,13.37,0,0,0,1.34,6.06,10,10,0,0,0,9.23,5.64,10.2,10.2,0,0,0,5.48-1.48,10.08,10.08,0,0,0,3.74-4.16A13.24,13.24,0,0,0,168.63,29,13.24,13.24,0,0,0,167.28,23Z"/><path class="cls-3" d="M200.72,36.26a12.82,12.82,0,0,1-22.77,0A15.31,15.31,0,0,1,176.27,29,15.35,15.35,0,0,1,178,21.79a12.52,12.52,0,0,1,4.64-5,13.6,13.6,0,0,1,13.49,0,12.45,12.45,0,0,1,4.64,5A15.35,15.35,0,0,1,202.4,29,15.31,15.31,0,0,1,200.72,36.26ZM198.56,23a10.28,10.28,0,0,0-18.45,0A13.24,13.24,0,0,0,178.77,29a13.24,13.24,0,0,0,1.34,6.06,10.28,10.28,0,0,0,18.45,0A13.24,13.24,0,0,0,199.9,29,13.24,13.24,0,0,0,198.56,23Z"/><path class="cls-3" d="M211.74,42.14a13.8,13.8,0,0,1-4.19-2.92,1.17,1.17,0,0,1-.1-1.79,1.14,1.14,0,0,1,.84-.39,1.2,1.2,0,0,1,.86.39,9.85,9.85,0,0,0,7.6,3.35,7.76,7.76,0,0,0,4.66-1.33A4.07,4.07,0,0,0,223.27,36a4.26,4.26,0,0,0-.92-2.79,6.85,6.85,0,0,0-2.4-1.81,31.18,31.18,0,0,0-3.78-1.44A23.19,23.19,0,0,1,212,28.3a7.63,7.63,0,0,1-2.75-2.4,6.41,6.41,0,0,1-1.06-3.8,6.29,6.29,0,0,1,1.11-3.67,7.55,7.55,0,0,1,3.12-2.51A11.06,11.06,0,0,1,217,15a12.43,12.43,0,0,1,4.46.8,8,8,0,0,1,3.34,2.28,1.87,1.87,0,0,1,.58,1.13,1.09,1.09,0,0,1-.39.8,1.22,1.22,0,0,1-.86.37.9.9,0,0,1-.66-.27,7.69,7.69,0,0,0-2.81-2A8.92,8.92,0,0,0,217,17.3a7.86,7.86,0,0,0-4.65,1.27A4,4,0,0,0,210.59,22a4,4,0,0,0,1.72,3.47,17.93,17.93,0,0,0,4.91,2.22,29.66,29.66,0,0,1,4.52,1.68,7.46,7.46,0,0,1,2.87,2.44A7.07,7.07,0,0,1,225.72,36a6.06,6.06,0,0,1-1.15,3.61,7.74,7.74,0,0,1-3.2,2.55,11,11,0,0,1-4.66.94A12.31,12.31,0,0,1,211.74,42.14Z"/><path class="cls-3" d="M265.15,41.6a1.06,1.06,0,0,1-.35.82,1.18,1.18,0,0,1-.82.31,1.07,1.07,0,0,1-.68-.22,1.31,1.31,0,0,1-.45-.56l-2.93-7.14H247.25L244.36,42a1.08,1.08,0,0,1-1.05.78,1.13,1.13,0,0,1-.82-.27,1.14,1.14,0,0,1-.31-.74V41.6a1,1,0,0,1,0-.35l10.29-25.2a1.16,1.16,0,0,1,1.17-.78,1.18,1.18,0,0,1,.69.22,1.47,1.47,0,0,1,.45.56l10.25,25.08A2.38,2.38,0,0,1,265.15,41.6Zm-17-9.09H259l-5.46-13.34Z"/><path class="cls-3" d="M287.63,15.7a1.05,1.05,0,0,1,.34.82,1,1,0,0,1-.34.8,1.19,1.19,0,0,1-.83.29h-8.08V41.52a1.08,1.08,0,0,1-.35.84,1.2,1.2,0,0,1-.86.33,1.18,1.18,0,0,1-.87-.33,1.14,1.14,0,0,1-.33-.84V17.61h-8.08a1.16,1.16,0,0,1-.84-.31,1.08,1.08,0,0,1-.33-.82,1,1,0,0,1,.33-.78,1.21,1.21,0,0,1,.84-.31H286.8A1.2,1.2,0,0,1,287.63,15.7Z"/><path class="cls-3" d="M310.29,40.7a1.08,1.08,0,0,1,.33.82,1.13,1.13,0,0,1-1.17,1.17H295.53a1.13,1.13,0,0,1-1.17-1.17v-25a1.12,1.12,0,0,1,.35-.84,1.28,1.28,0,0,1,.9-.33,1.22,1.22,0,0,1,.86.33,1.12,1.12,0,0,1,.35.84V40.39h12.63A1.16,1.16,0,0,1,310.29,40.7Z"/><path class="cls-3" d="M337,41.6a1.06,1.06,0,0,1-.35.82,1.2,1.2,0,0,1-.82.31,1.07,1.07,0,0,1-.68-.22,1.31,1.31,0,0,1-.45-.56l-2.93-7.14H319.05L316.16,42a1.08,1.08,0,0,1-1.05.78,1.11,1.11,0,0,1-.82-.27,1.14,1.14,0,0,1-.31-.74V41.6a1,1,0,0,1,0-.35l10.29-25.2a1.16,1.16,0,0,1,1.17-.78,1.18,1.18,0,0,1,.69.22,1.36,1.36,0,0,1,.44.56l10.26,25.08A2.38,2.38,0,0,1,337,41.6Zm-17-9.09h10.84l-5.46-13.34Z"/><path class="cls-3" d="M363.92,15.7a1.12,1.12,0,0,1,.29.78v25A1.17,1.17,0,0,1,363,42.69a1.24,1.24,0,0,1-.53-.12,1.34,1.34,0,0,1-.4-.27L345.33,19.76V41.64a1,1,0,0,1-.33.74,1.11,1.11,0,0,1-1.54,0,1,1,0,0,1-.31-.74V16.56a1.14,1.14,0,0,1,.33-.86,1.16,1.16,0,0,1,.8-.31,1.08,1.08,0,0,1,.94.43L362,38.48v-22a1.06,1.06,0,0,1,.31-.78,1.1,1.1,0,0,1,.78-.31A1.08,1.08,0,0,1,363.92,15.7Z"/><path class="cls-3" d="M391.18,15.7a1.08,1.08,0,0,1,.33.82,1,1,0,0,1-.33.8,1.19,1.19,0,0,1-.84.29h-8.07V41.52a1.12,1.12,0,0,1-.35.84,1.22,1.22,0,0,1-.86.33,1.18,1.18,0,0,1-.88-.33,1.14,1.14,0,0,1-.33-.84V17.61h-8.07a1.16,1.16,0,0,1-.84-.31,1.08,1.08,0,0,1-.33-.82,1,1,0,0,1,.33-.78,1.21,1.21,0,0,1,.84-.31h18.56A1.21,1.21,0,0,1,391.18,15.7Z"/><path class="cls-3" d="M400,42.34a1.19,1.19,0,0,1-2.06-.86V16.6a1.14,1.14,0,0,1,.35-.88,1.24,1.24,0,0,1,.89-.33,1.18,1.18,0,0,1,.86.35,1.19,1.19,0,0,1,.35.86V41.48A1.26,1.26,0,0,1,400,42.34Z"/><path class="cls-3" d="M429.57,18.39a1.47,1.47,0,0,1-.27.78,1.09,1.09,0,0,1-.9.43,1.17,1.17,0,0,1-.62-.19A12.11,12.11,0,0,0,421,17.34a11.15,11.15,0,0,0-5.71,1.48,10.66,10.66,0,0,0-4,4.16A12.46,12.46,0,0,0,409.76,29a12.43,12.43,0,0,0,1.48,6.14,10.65,10.65,0,0,0,4,4.14A11.24,11.24,0,0,0,421,40.78a12.11,12.11,0,0,0,6.79-2,1.23,1.23,0,0,1,.66-.19,1.07,1.07,0,0,1,.9.46,1.11,1.11,0,0,1,.27.75,1,1,0,0,1-.54.93,14.35,14.35,0,0,1-3.75,1.7,14.84,14.84,0,0,1-4.33.68,13.68,13.68,0,0,1-6.84-1.77,13.18,13.18,0,0,1-5-5A14.22,14.22,0,0,1,407.27,29a14.23,14.23,0,0,1,1.83-7.16A13.38,13.38,0,0,1,421,15a15,15,0,0,1,4.27.62A13.6,13.6,0,0,1,429,17.42,1.08,1.08,0,0,1,429.57,18.39Z"/><path class="cls-4" d="M115.92,63.16a.64.64,0,0,1,.1.35.66.66,0,0,1-.16.43.75.75,0,0,1-.6.23,1.26,1.26,0,0,1-.57-.14,2.29,2.29,0,0,1-.93-2.17.94.94,0,0,0-.31-.74,1.24,1.24,0,0,0-.88-.28h-2.43v2.53a.84.84,0,0,1-.19.57.64.64,0,0,1-.5.22,1,1,0,0,1-.65-.23.69.69,0,0,1-.28-.56V55.85a.77.77,0,0,1,.79-.79h3.74a2.46,2.46,0,0,1,1.28.36,2.69,2.69,0,0,1,1,1,2.87,2.87,0,0,1,.36,1.43,2.56,2.56,0,0,1-.35,1.27,2.77,2.77,0,0,1-.91,1,2,2,0,0,1,.9,1.54,2.85,2.85,0,0,1,0,.4,4.37,4.37,0,0,0,.1.58.42.42,0,0,0,.23.26A.66.66,0,0,1,115.92,63.16Zm-2.48-3.88a1.61,1.61,0,0,0,.37-.59,2.32,2.32,0,0,0,.14-.8,1.67,1.67,0,0,0-.14-.67,1.4,1.4,0,0,0-.37-.48.66.66,0,0,0-.45-.19h-2.85v3H113A.62.62,0,0,0,113.44,59.28Z"/><path class="cls-4" d="M123.16,62.89a.74.74,0,0,1,.23.53.7.7,0,0,1-.23.53.79.79,0,0,1-.56.21h-4.36a.81.81,0,0,1-.57-.23.76.76,0,0,1-.22-.56V55.85a.76.76,0,0,1,.22-.56.77.77,0,0,1,.57-.23h4.36a.79.79,0,0,1,.56.21.75.75,0,0,1,.23.56.69.69,0,0,1-.22.52.8.8,0,0,1-.57.2h-3.53v2.21H122a.78.78,0,0,1,.57.22.71.71,0,0,1,.22.55.68.68,0,0,1-.22.53.82.82,0,0,1-.57.2h-2.94v2.4h3.53A.77.77,0,0,1,123.16,62.89Z"/><path class="cls-4" d="M132.15,59.47a.77.77,0,0,1,.22.57v2.75a.79.79,0,0,1-.4.71,5.26,5.26,0,0,1-2.8.79,4.72,4.72,0,0,1-4.1-2.34,4.43,4.43,0,0,1-.64-2.34,4.49,4.49,0,0,1,.64-2.35,4.74,4.74,0,0,1,4.1-2.33,4.55,4.55,0,0,1,2.24.52.69.69,0,0,1,.29.27.65.65,0,0,1,.1.36.8.8,0,0,1-.22.57.66.66,0,0,1-.52.24,1,1,0,0,1-.43-.1,3.67,3.67,0,0,0-1.46-.3,2.94,2.94,0,0,0-1.53.42,3.16,3.16,0,0,0-1.11,4.26,3.19,3.19,0,0,0,1.11,1.14,2.94,2.94,0,0,0,1.53.42,4.26,4.26,0,0,0,.78-.07,4.15,4.15,0,0,0,.73-.17V60.8h-1.22a.77.77,0,0,1-.57-.22.73.73,0,0,1-.22-.56.76.76,0,0,1,.22-.56.81.81,0,0,1,.57-.22h2.13A.75.75,0,0,1,132.15,59.47Z"/><path class="cls-4" d="M135.31,63.93a.85.85,0,0,1-.57.23.78.78,0,0,1-.58-.23.77.77,0,0,1-.23-.56V55.85a.77.77,0,0,1,.23-.56.81.81,0,0,1,.6-.23.73.73,0,0,1,.56.23.74.74,0,0,1,.24.56v7.52A.75.75,0,0,1,135.31,63.93Z"/><path class="cls-4" d="M145.31,62a4.43,4.43,0,0,1-1.58,1.69,4.4,4.4,0,0,1-4.54,0A4.26,4.26,0,0,1,137.62,62a5.17,5.17,0,0,1,0-4.72,4.38,4.38,0,0,1,6.11-1.7,4.46,4.46,0,0,1,1.58,1.7,5.17,5.17,0,0,1,0,4.72ZM143.84,58a2.91,2.91,0,0,0-1-1.13,2.5,2.5,0,0,0-1.4-.41,2.43,2.43,0,0,0-1.41.41,2.77,2.77,0,0,0-1,1.12,3.63,3.63,0,0,0-.35,1.59,3.56,3.56,0,0,0,.35,1.58,2.73,2.73,0,0,0,1,1.13,2.51,2.51,0,0,0,1.41.41,2.43,2.43,0,0,0,1.4-.42,2.81,2.81,0,0,0,1-1.12,3.74,3.74,0,0,0,0-3.16Z"/><path class="cls-4" d="M154.78,55.27a.73.73,0,0,1,.2.52v7.58a.79.79,0,0,1-.79.79,1.09,1.09,0,0,1-.36-.06.55.55,0,0,1-.26-.16l-4.77-6.06v5.55a.69.69,0,0,1-.2.52.69.69,0,0,1-.52.21.66.66,0,0,1-.51-.21.73.73,0,0,1-.2-.52V55.85a.77.77,0,0,1,.23-.56.74.74,0,0,1,.57-.23.87.87,0,0,1,.38.08.61.61,0,0,1,.28.2l4.73,6V55.79a.73.73,0,0,1,.2-.52.7.7,0,0,1,.52-.21A.66.66,0,0,1,154.78,55.27Z"/><path class="cls-4" d="M164.13,63.46a.73.73,0,0,1-.73.76.66.66,0,0,1-.42-.14.89.89,0,0,1-.29-.39L162,62.12h-3.87l-.68,1.58a.76.76,0,0,1-.28.39.67.67,0,0,1-.41.13.69.69,0,0,1-.51-.18.67.67,0,0,1-.18-.49,1.18,1.18,0,0,1,0-.25l3.24-7.77a.86.86,0,0,1,.31-.41.7.7,0,0,1,.47-.11.75.75,0,0,1,.43.13.74.74,0,0,1,.3.39l3.2,7.61A1,1,0,0,1,164.13,63.46Zm-5.36-2.84h2.6l-1.31-3Z"/><path class="cls-4" d="M170.82,62.85a.75.75,0,0,1,.23.55.71.71,0,0,1-.23.54.77.77,0,0,1-.57.22H166a.79.79,0,0,1-.8-.79V55.85a.74.74,0,0,1,.24-.56.78.78,0,0,1,.6-.23.79.79,0,0,1,.79.79v6.79h3.39A.8.8,0,0,1,170.82,62.85Z"/><path class="cls-4" d="M183.38,63.46a.73.73,0,0,1-.73.76.66.66,0,0,1-.42-.14,1,1,0,0,1-.29-.39l-.68-1.57h-3.87l-.68,1.58a.76.76,0,0,1-.28.39.67.67,0,0,1-.41.13.69.69,0,0,1-.51-.18.67.67,0,0,1-.18-.49,1.18,1.18,0,0,1,0-.25l3.24-7.77a.86.86,0,0,1,.31-.41.7.7,0,0,1,.47-.11.75.75,0,0,1,.73.52l3.2,7.61A1,1,0,0,1,183.38,63.46ZM178,60.62h2.6l-1.32-3Z"/><path class="cls-4" d="M185.75,64.05a3.82,3.82,0,0,1-1.37-.79.93.93,0,0,1-.35-.69.74.74,0,0,1,.22-.52.74.74,0,0,1,1-.08,3.63,3.63,0,0,0,1,.63,3.19,3.19,0,0,0,1.17.19,2.41,2.41,0,0,0,1.26-.32,1,1,0,0,0,.52-.81,1,1,0,0,0-.52-.91,4.13,4.13,0,0,0-1.65-.5c-1.9-.28-2.85-1.17-2.85-2.66a2.43,2.43,0,0,1,.43-1.42,2.76,2.76,0,0,1,1.17-.92,4,4,0,0,1,1.65-.32,4.82,4.82,0,0,1,1.54.24,3.76,3.76,0,0,1,1.21.66.83.83,0,0,1,.37.68.73.73,0,0,1-.22.53.7.7,0,0,1-.52.23.57.57,0,0,1-.35-.12,3.39,3.39,0,0,0-.94-.5,3.18,3.18,0,0,0-1.09-.23,2.25,2.25,0,0,0-1.26.31,1,1,0,0,0,0,1.64,4.37,4.37,0,0,0,1.45.47,7.71,7.71,0,0,1,1.79.5,2.31,2.31,0,0,1,1,.83,2.52,2.52,0,0,1,.34,1.4,2.32,2.32,0,0,1-.46,1.44,3,3,0,0,1-1.23,1,4.12,4.12,0,0,1-1.65.33A5.28,5.28,0,0,1,185.75,64.05Z"/><path class="cls-4" d="M193.51,64.05a3.82,3.82,0,0,1-1.37-.79.93.93,0,0,1-.35-.69.74.74,0,0,1,.22-.52.74.74,0,0,1,1-.08,3.63,3.63,0,0,0,1,.63,3.19,3.19,0,0,0,1.17.19,2.41,2.41,0,0,0,1.26-.32,1,1,0,0,0,.52-.81,1,1,0,0,0-.52-.91,4.13,4.13,0,0,0-1.65-.5c-1.9-.28-2.84-1.17-2.84-2.66a2.43,2.43,0,0,1,.42-1.42,2.76,2.76,0,0,1,1.17-.92,4.06,4.06,0,0,1,1.66-.32,4.91,4.91,0,0,1,1.54.24,3.82,3.82,0,0,1,1.2.66.85.85,0,0,1,.38.68.74.74,0,0,1-.23.53.7.7,0,0,1-.52.23.57.57,0,0,1-.35-.12,3.39,3.39,0,0,0-.94-.5,3.13,3.13,0,0,0-1.08-.23,2.27,2.27,0,0,0-1.27.31,1,1,0,0,0,0,1.64,4.37,4.37,0,0,0,1.45.47,7.71,7.71,0,0,1,1.79.5,2.4,2.4,0,0,1,1,.83,2.61,2.61,0,0,1,.33,1.4,2.32,2.32,0,0,1-.46,1.44,3,3,0,0,1-1.23,1,4.12,4.12,0,0,1-1.65.33A5.28,5.28,0,0,1,193.51,64.05Z"/><path class="cls-4" d="M207.81,62a4.36,4.36,0,0,1-1.58,1.69,4.4,4.4,0,0,1-4.54,0A4.33,4.33,0,0,1,200.12,62a5.17,5.17,0,0,1,0-4.72,4.36,4.36,0,0,1,1.57-1.7,4.47,4.47,0,0,1,4.54,0,4.39,4.39,0,0,1,1.58,1.7,5.17,5.17,0,0,1,0,4.72ZM206.34,58a2.83,2.83,0,0,0-1-1.13,2.5,2.5,0,0,0-1.4-.41,2.43,2.43,0,0,0-1.41.41,2.77,2.77,0,0,0-1,1.12,3.63,3.63,0,0,0-.35,1.59,3.56,3.56,0,0,0,.35,1.58,2.73,2.73,0,0,0,1,1.13,2.51,2.51,0,0,0,1.41.41,2.43,2.43,0,0,0,1.4-.42,2.74,2.74,0,0,0,1-1.12,3.74,3.74,0,0,0,0-3.16Z"/><path class="cls-4" d="M216.65,56.16a.93.93,0,0,1-.2.54.64.64,0,0,1-.53.27.91.91,0,0,1-.44-.12,3.23,3.23,0,0,0-1.38-.3,3.12,3.12,0,0,0-1.59.39,2.58,2.58,0,0,0-1,1.08,3.39,3.39,0,0,0-.36,1.59,3.1,3.1,0,0,0,.83,2.33,3,3,0,0,0,2.16.79,3,3,0,0,0,1.38-.3,1,1,0,0,1,.41-.1.72.72,0,0,1,.58.28.84.84,0,0,1,.19.53.67.67,0,0,1-.4.64,4.77,4.77,0,0,1-2.16.51,5.1,5.1,0,0,1-2.34-.54,4.13,4.13,0,0,1-1.7-1.59,4.83,4.83,0,0,1-.64-2.55,4.7,4.7,0,0,1,.6-2.38,4.37,4.37,0,0,1,1.68-1.65,4.9,4.9,0,0,1,2.4-.59,4.57,4.57,0,0,1,2.14.51A.7.7,0,0,1,216.65,56.16Z"/><path class="cls-4" d="M219.4,63.93a.83.83,0,0,1-1.15,0,.76.76,0,0,1-.22-.56V55.85a.73.73,0,0,1,.23-.56.81.81,0,0,1,.6-.23.75.75,0,0,1,.56.23.77.77,0,0,1,.23.56v7.52A.72.72,0,0,1,219.4,63.93Z"/><path class="cls-4" d="M228.8,63.46a.72.72,0,0,1-.22.55.69.69,0,0,1-.5.21.67.67,0,0,1-.43-.14,1,1,0,0,1-.29-.39l-.68-1.57h-3.87l-.68,1.58a.81.81,0,0,1-.27.39.71.71,0,0,1-.41.13.7.7,0,0,1-.52-.18.71.71,0,0,1-.17-.49.77.77,0,0,1,0-.25L224,55.53a.93.93,0,0,1,.31-.41.7.7,0,0,1,.47-.11.75.75,0,0,1,.73.52l3.2,7.61A1,1,0,0,1,228.8,63.46Zm-5.35-2.84h2.6l-1.31-3Z"/><path class="cls-4" d="M235.81,55.27a.7.7,0,0,1,.22.54.67.67,0,0,1-.22.54.8.8,0,0,1-.57.2h-2v6.82a.72.72,0,0,1-.25.56.87.87,0,0,1-.61.23.85.85,0,0,1-.6-.23.77.77,0,0,1-.23-.56V56.55h-2a.77.77,0,0,1-.57-.21.74.74,0,0,1,0-1.07.8.8,0,0,1,.57-.21h5.77A.8.8,0,0,1,235.81,55.27Z"/><path class="cls-4" d="M238.77,63.93a.83.83,0,0,1-1.15,0,.76.76,0,0,1-.22-.56V55.85a.73.73,0,0,1,.23-.56.81.81,0,0,1,.6-.23.75.75,0,0,1,.56.23.77.77,0,0,1,.23.56v7.52A.72.72,0,0,1,238.77,63.93Z"/><path class="cls-4" d="M248.77,62a4.36,4.36,0,0,1-1.58,1.69,4.39,4.39,0,0,1-4.53,0A4.29,4.29,0,0,1,241.08,62a5.25,5.25,0,0,1,0-4.72,4.31,4.31,0,0,1,1.58-1.7,4.45,4.45,0,0,1,4.53,0,4.39,4.39,0,0,1,1.58,1.7,5.17,5.17,0,0,1,0,4.72ZM247.3,58a2.89,2.89,0,0,0-1-1.13,2.56,2.56,0,0,0-1.41-.41,2.45,2.45,0,0,0-1.41.41,2.77,2.77,0,0,0-1,1.12,3.63,3.63,0,0,0-.34,1.59,3.55,3.55,0,0,0,.34,1.58,2.73,2.73,0,0,0,1,1.13,2.53,2.53,0,0,0,1.41.41,2.49,2.49,0,0,0,1.41-.42,2.79,2.79,0,0,0,1-1.12,3.74,3.74,0,0,0,0-3.16Z"/><path class="cls-4" d="M258.25,55.27a.73.73,0,0,1,.19.52v7.58a.76.76,0,0,1-.22.56.78.78,0,0,1-.57.23,1.13,1.13,0,0,1-.36-.06.52.52,0,0,1-.25-.16l-4.77-6.06v5.55a.73.73,0,0,1-.2.52.71.71,0,0,1-.53.21A.66.66,0,0,1,251,64a.73.73,0,0,1-.19-.52V55.85a.79.79,0,0,1,.79-.79.91.91,0,0,1,.39.08.64.64,0,0,1,.27.2l4.74,6V55.79a.69.69,0,0,1,.2-.52.72.72,0,0,1,1,0Z"/><path class="cls-4" d="M271.83,62a4.29,4.29,0,0,1-1.58,1.69,4.39,4.39,0,0,1-4.53,0A4.29,4.29,0,0,1,264.14,62a5.25,5.25,0,0,1,0-4.72,4.31,4.31,0,0,1,1.58-1.7,4.45,4.45,0,0,1,4.53,0,4.31,4.31,0,0,1,1.58,1.7,5.09,5.09,0,0,1,0,4.72ZM270.36,58a2.81,2.81,0,0,0-1-1.13,2.52,2.52,0,0,0-1.4-.41,2.43,2.43,0,0,0-1.41.41,2.72,2.72,0,0,0-1,1.12,3.63,3.63,0,0,0-.34,1.59,3.55,3.55,0,0,0,.34,1.58,2.68,2.68,0,0,0,1,1.13,2.51,2.51,0,0,0,1.41.41,2.45,2.45,0,0,0,1.4-.42,2.72,2.72,0,0,0,1-1.12,3.65,3.65,0,0,0,0-3.16Z"/><path class="cls-4" d="M275.53,56.55v2.29h2.8a.77.77,0,0,1,.57.22.73.73,0,0,1,0,1.06.81.81,0,0,1-.57.22h-2.8v3a.72.72,0,0,1-.25.56.79.79,0,0,1-.56.23.84.84,0,0,1-.59-.22.78.78,0,0,1-.23-.57V55.85a.77.77,0,0,1,.23-.56.73.73,0,0,1,.56-.23h4.23a.79.79,0,0,1,.56.21.72.72,0,0,1,.23.56.65.65,0,0,1-.23.5.76.76,0,0,1-.56.22Z"/><path class="cls-4" d="M291.4,55.27a.74.74,0,0,1,.22.54.71.71,0,0,1-.22.54.8.8,0,0,1-.57.2h-2.05v6.82a.74.74,0,0,1-.24.56.89.89,0,0,1-.61.23.83.83,0,0,1-.6-.23.74.74,0,0,1-.24-.56V56.55h-2a.8.8,0,0,1-.57-.21.75.75,0,0,1,0-1.07.79.79,0,0,1,.56-.21h5.78A.8.8,0,0,1,291.4,55.27Z"/><path class="cls-4" d="M300.16,55.28a.77.77,0,0,1,.22.57v7.52a.77.77,0,0,1-.23.56.85.85,0,0,1-.6.23.79.79,0,0,1-.56-.23.73.73,0,0,1-.23-.56v-3h-4.15v3a.72.72,0,0,1-.25.56.81.81,0,0,1-.57.23.8.8,0,0,1-.58-.23.77.77,0,0,1-.23-.56V55.85a.74.74,0,0,1,.24-.56.78.78,0,0,1,.6-.23.73.73,0,0,1,.55.23.74.74,0,0,1,.24.56v3h4.15v-3a.74.74,0,0,1,.24-.56.81.81,0,0,1,.58-.23A.78.78,0,0,1,300.16,55.28Z"/><path class="cls-4" d="M308,62.89a.7.7,0,0,1,.23.53A.67.67,0,0,1,308,64a.79.79,0,0,1-.56.21h-4.36a.79.79,0,0,1-.79-.79V55.85a.77.77,0,0,1,.23-.56.73.73,0,0,1,.56-.23h4.36a.79.79,0,0,1,.56.21.72.72,0,0,1,.23.56.66.66,0,0,1-.22.52.8.8,0,0,1-.57.2H304v2.21h2.94a.77.77,0,0,1,.57.22.76.76,0,0,1,0,1.08.85.85,0,0,1-.58.2H304v2.4h3.53A.77.77,0,0,1,308,62.89Z"/><path class="cls-4" d="M115.29,71.76a.93.93,0,0,1-.2.54.62.62,0,0,1-.53.27.91.91,0,0,1-.44-.12,3.17,3.17,0,0,0-1.38-.3,3.11,3.11,0,0,0-1.58.39,2.47,2.47,0,0,0-1,1.08,3.28,3.28,0,0,0-.37,1.59,3.1,3.1,0,0,0,.83,2.33,3,3,0,0,0,2.16.79,3,3,0,0,0,1.38-.3,1,1,0,0,1,.42-.11.73.73,0,0,1,.57.29.84.84,0,0,1,.19.53.67.67,0,0,1-.4.64,4.77,4.77,0,0,1-2.16.51,5.1,5.1,0,0,1-2.34-.54,4.13,4.13,0,0,1-1.7-1.59,4.83,4.83,0,0,1-.64-2.55,4.61,4.61,0,0,1,.61-2.38,4.34,4.34,0,0,1,1.67-1.65,4.9,4.9,0,0,1,2.4-.59,4.64,4.64,0,0,1,2.15.51A.69.69,0,0,1,115.29,71.76Z"/><path class="cls-4" d="M123.87,79.06a.74.74,0,0,1-.22.55.73.73,0,0,1-.51.21.66.66,0,0,1-.42-.14,1,1,0,0,1-.29-.39l-.68-1.57h-3.87l-.68,1.58a.76.76,0,0,1-.28.39.67.67,0,0,1-.41.13.69.69,0,0,1-.51-.18.67.67,0,0,1-.18-.49,1.18,1.18,0,0,1,0-.25l3.24-7.77a.86.86,0,0,1,.31-.41.7.7,0,0,1,.47-.11.75.75,0,0,1,.43.13.74.74,0,0,1,.3.39l3.2,7.61A1,1,0,0,1,123.87,79.06Zm-5.36-2.84h2.6l-1.31-3Z"/><path class="cls-4" d="M132.38,70.87a.72.72,0,0,1,.2.52V79a.79.79,0,0,1-.79.8,1.13,1.13,0,0,1-.36-.06.47.47,0,0,1-.25-.16l-4.77-6.06V79a.7.7,0,0,1-.21.52.69.69,0,0,1-.52.21.66.66,0,0,1-.51-.21A.73.73,0,0,1,125,79V71.45a.77.77,0,0,1,.23-.56.74.74,0,0,1,.57-.23.84.84,0,0,1,.38.08.61.61,0,0,1,.28.2l4.73,6V71.39a.72.72,0,0,1,.2-.52.7.7,0,0,1,.52-.21A.64.64,0,0,1,132.38,70.87Z"/><path class="cls-4" d="M141.73,79.06a.74.74,0,0,1-.22.55.73.73,0,0,1-.51.21.66.66,0,0,1-.42-.14,1,1,0,0,1-.29-.39l-.68-1.57h-3.87l-.68,1.58a.76.76,0,0,1-.28.39.67.67,0,0,1-.41.13.69.69,0,0,1-.51-.18.67.67,0,0,1-.18-.49,1.18,1.18,0,0,1,0-.25L137,71.13a.86.86,0,0,1,.31-.41.7.7,0,0,1,.47-.11.75.75,0,0,1,.73.52l3.2,7.61A1,1,0,0,1,141.73,79.06Zm-5.35-2.84H139l-1.32-3Z"/><path class="cls-4" d="M148.84,71.26a3.79,3.79,0,0,1,1.33,1.64,5.91,5.91,0,0,1,0,4.62,3.82,3.82,0,0,1-1.33,1.63,3.58,3.58,0,0,1-2.1.61h-3.11a.79.79,0,0,1-.57-.23.77.77,0,0,1-.22-.57V71.45a.77.77,0,0,1,.79-.79h3.11A3.65,3.65,0,0,1,148.84,71.26Zm-.48,6.14a3.84,3.84,0,0,0,.59-2.19,3.73,3.73,0,0,0-.6-2.19,2,2,0,0,0-1.74-.87h-2.15v6.11h2.15A2,2,0,0,0,148.36,77.4Z"/><path class="cls-4" d="M153.51,79.53a.85.85,0,0,1-.57.23.79.79,0,0,1-.81-.8V71.45a.74.74,0,0,1,.24-.56.77.77,0,0,1,.59-.23.73.73,0,0,1,.56.23.74.74,0,0,1,.24.56V79A.76.76,0,0,1,153.51,79.53Z"/><path class="cls-4" d="M162.91,79.06a.78.78,0,0,1-.22.55.73.73,0,0,1-.51.21.63.63,0,0,1-.42-.14.87.87,0,0,1-.29-.39l-.68-1.57h-3.88l-.67,1.58a.76.76,0,0,1-.28.39.69.69,0,0,1-.41.13.62.62,0,0,1-.69-.67.77.77,0,0,1,0-.25l3.24-7.77a.86.86,0,0,1,.31-.41.69.69,0,0,1,.47-.11.75.75,0,0,1,.43.13.79.79,0,0,1,.3.39l3.19,7.61A.81.81,0,0,1,162.91,79.06Zm-5.36-2.84h2.6l-1.31-3Z"/><path class="cls-4" d="M171.42,70.87a.72.72,0,0,1,.2.52V79a.79.79,0,0,1-.79.8,1,1,0,0,1-.36-.06.55.55,0,0,1-.26-.16l-4.77-6.06V79a.7.7,0,0,1-.73.73.66.66,0,0,1-.5-.21A.73.73,0,0,1,164,79V71.45a.77.77,0,0,1,.23-.56.74.74,0,0,1,.57-.23.87.87,0,0,1,.38.08.61.61,0,0,1,.28.2l4.73,6V71.39a.72.72,0,0,1,.2-.52.7.7,0,0,1,.52-.21A.66.66,0,0,1,171.42,70.87Z"/><path class="cls-4" d="M178.58,79.53a.83.83,0,0,1-1.15,0,.77.77,0,0,1-.22-.57V71.45a.73.73,0,0,1,.23-.56.81.81,0,0,1,.6-.23.75.75,0,0,1,.56.23.77.77,0,0,1,.23.56V79A.72.72,0,0,1,178.58,79.53Z"/><path class="cls-4" d="M188.19,70.87a.72.72,0,0,1,.2.52V79a.79.79,0,0,1-.8.8,1,1,0,0,1-.35-.06.51.51,0,0,1-.26-.16l-4.77-6.06V79a.7.7,0,0,1-.73.73.66.66,0,0,1-.5-.21.73.73,0,0,1-.2-.52V71.45a.77.77,0,0,1,.23-.56.74.74,0,0,1,.57-.23.87.87,0,0,1,.38.08.67.67,0,0,1,.28.2L187,77V71.39a.72.72,0,0,1,.2-.52.7.7,0,0,1,.52-.21A.66.66,0,0,1,188.19,70.87Z"/><path class="cls-4" d="M196.89,70.87a.69.69,0,0,1,.22.54.67.67,0,0,1-.22.54.8.8,0,0,1-.57.2h-2V79a.76.76,0,0,1-.25.57.89.89,0,0,1-.61.23.85.85,0,0,1-.6-.23.74.74,0,0,1-.23-.57V72.15h-2.05a.8.8,0,0,1-.57-.21.72.72,0,0,1-.22-.54.67.67,0,0,1,.23-.53.79.79,0,0,1,.56-.21h5.78A.8.8,0,0,1,196.89,70.87Z"/><path class="cls-4" d="M204.19,78.49a.74.74,0,0,1,.23.53.7.7,0,0,1-.23.53.8.8,0,0,1-.57.21h-4.35a.79.79,0,0,1-.8-.8V71.45a.77.77,0,0,1,.23-.56.74.74,0,0,1,.57-.23h4.35a.8.8,0,0,1,.57.21.75.75,0,0,1,.23.55.7.7,0,0,1-.22.53.8.8,0,0,1-.58.2H200.1v2.21H203a.76.76,0,0,1,.56.22.72.72,0,0,1,.23.55.68.68,0,0,1-.22.53.84.84,0,0,1-.57.2H200.1v2.4h3.52A.78.78,0,0,1,204.19,78.49Z"/><path class="cls-4" d="M213.18,75.07a.77.77,0,0,1,.22.57v2.75a.77.77,0,0,1-.41.7,5.15,5.15,0,0,1-2.79.8,4.75,4.75,0,0,1-4.11-2.34,4.52,4.52,0,0,1-.64-2.34,4.58,4.58,0,0,1,.64-2.35,4.78,4.78,0,0,1,1.73-1.7,4.68,4.68,0,0,1,2.38-.63,4.58,4.58,0,0,1,2.24.52.76.76,0,0,1,.29.27.75.75,0,0,1,.1.36.85.85,0,0,1-.22.57.67.67,0,0,1-.52.24,1,1,0,0,1-.43-.1,3.7,3.7,0,0,0-1.46-.3,2.91,2.91,0,0,0-1.53.42,3.14,3.14,0,0,0-1.12,1.14,3.07,3.07,0,0,0-.4,1.56,3.12,3.12,0,0,0,.4,1.56,3.3,3.3,0,0,0,1.12,1.14,2.91,2.91,0,0,0,1.53.42,4.42,4.42,0,0,0,.78-.07,4.15,4.15,0,0,0,.73-.17V76.4h-1.22a.77.77,0,0,1-.57-.22.74.74,0,0,1-.23-.56.77.77,0,0,1,.23-.56.81.81,0,0,1,.57-.22h2.13A.77.77,0,0,1,213.18,75.07Z"/><path class="cls-4" d="M222.36,78.76a.64.64,0,0,1,.1.35.66.66,0,0,1-.16.43.75.75,0,0,1-.6.23,1.26,1.26,0,0,1-.57-.14,2.29,2.29,0,0,1-.93-2.17.91.91,0,0,0-.31-.74,1.22,1.22,0,0,0-.88-.28h-2.43V79a.85.85,0,0,1-.19.58.64.64,0,0,1-.5.22,1,1,0,0,1-.65-.23A.69.69,0,0,1,215,79V71.45a.79.79,0,0,1,.79-.79h3.74a2.43,2.43,0,0,1,1.28.36,2.61,2.61,0,0,1,.95,1,2.87,2.87,0,0,1,.36,1.43,2.46,2.46,0,0,1-.35,1.27,2.77,2.77,0,0,1-.91,1,2,2,0,0,1,.9,1.54,2.71,2.71,0,0,1,0,.4,4.37,4.37,0,0,0,.1.58.43.43,0,0,0,.24.26A.7.7,0,0,1,222.36,78.76Zm-2.47-3.88a1.75,1.75,0,0,0,.36-.59,2.32,2.32,0,0,0,.14-.8,1.52,1.52,0,0,0-.5-1.16.72.72,0,0,0-.46-.18h-2.85V75.1h2.85A.64.64,0,0,0,219.89,74.88Z"/><path class="cls-4" d="M231.09,79.06a.74.74,0,0,1-.22.55.73.73,0,0,1-.51.21.66.66,0,0,1-.42-.14,1,1,0,0,1-.29-.39L229,77.72H225.1l-.68,1.58a.76.76,0,0,1-.28.39.67.67,0,0,1-.41.13.69.69,0,0,1-.51-.18.67.67,0,0,1-.18-.49,1.18,1.18,0,0,1,0-.25l3.24-7.77a.86.86,0,0,1,.31-.41.7.7,0,0,1,.47-.11.73.73,0,0,1,.43.13.74.74,0,0,1,.3.39l3.2,7.61A1,1,0,0,1,231.09,79.06Zm-5.35-2.84h2.59l-1.31-3Z"/><path class="cls-4" d="M238.1,70.87a.72.72,0,0,1,.22.54.71.71,0,0,1-.22.54.8.8,0,0,1-.57.2h-2V79a.76.76,0,0,1-.25.57.89.89,0,0,1-.61.23.83.83,0,0,1-.6-.23.75.75,0,0,1-.24-.57V72.15h-2a.8.8,0,0,1-.57-.21.69.69,0,0,1-.22-.54.67.67,0,0,1,.23-.53.79.79,0,0,1,.56-.21h5.78A.8.8,0,0,1,238.1,70.87Z"/><path class="cls-4" d="M245.4,78.49a.73.73,0,0,1,.22.53.69.69,0,0,1-.22.53.8.8,0,0,1-.57.21h-4.35a.79.79,0,0,1-.8-.8V71.45a.77.77,0,0,1,.23-.56.74.74,0,0,1,.57-.23h4.35a.8.8,0,0,1,.57.21.74.74,0,0,1,.22.55.67.67,0,0,1-.22.53.76.76,0,0,1-.57.2h-3.52v2.21h2.94a.76.76,0,0,1,.56.22.72.72,0,0,1,.23.55.68.68,0,0,1-.22.53.84.84,0,0,1-.57.2h-2.94v2.4h3.52A.78.78,0,0,1,245.4,78.49Z"/><path class="cls-4" d="M253.12,71.26a3.88,3.88,0,0,1,1.34,1.64,6,6,0,0,1,0,4.62,3.91,3.91,0,0,1-1.34,1.63,3.58,3.58,0,0,1-2.1.61h-3.11a.79.79,0,0,1-.79-.8V71.45a.77.77,0,0,1,.23-.56.73.73,0,0,1,.56-.23H251A3.65,3.65,0,0,1,253.12,71.26Zm-.48,6.14a3.84,3.84,0,0,0,.59-2.19,3.8,3.8,0,0,0-.59-2.19,2,2,0,0,0-1.75-.87h-2.15v6.11h2.15A2,2,0,0,0,252.64,77.4Z"/><path class="cls-4" d="M267.85,77.57a4.29,4.29,0,0,1-1.58,1.69,4.39,4.39,0,0,1-4.53,0,4.36,4.36,0,0,1-1.58-1.69,5.25,5.25,0,0,1,0-4.72,4.39,4.39,0,0,1,1.58-1.7,4.45,4.45,0,0,1,4.53,0,4.31,4.31,0,0,1,1.58,1.7,5.09,5.09,0,0,1,0,4.72Zm-1.47-3.94a2.81,2.81,0,0,0-1-1.13,2.52,2.52,0,0,0-1.4-.41,2.43,2.43,0,0,0-1.41.41,2.72,2.72,0,0,0-1,1.12,3.63,3.63,0,0,0-.34,1.59,3.55,3.55,0,0,0,.34,1.58,2.68,2.68,0,0,0,1,1.13,2.51,2.51,0,0,0,1.41.41,2.45,2.45,0,0,0,1.4-.42,2.78,2.78,0,0,0,1-1.12,3.65,3.65,0,0,0,0-3.16Z"/><path class="cls-4" d="M276.69,71.76a.91.91,0,0,1-.19.54.65.65,0,0,1-.53.27,1,1,0,0,1-.45-.12,3.16,3.16,0,0,0-1.37-.3,3.12,3.12,0,0,0-1.59.39,2.52,2.52,0,0,0-1,1.08,3.39,3.39,0,0,0-.36,1.59,3.09,3.09,0,0,0,.82,2.33,3,3,0,0,0,2.17.79,3,3,0,0,0,1.37-.3,1.09,1.09,0,0,1,.42-.11.7.7,0,0,1,.57.29.85.85,0,0,1,.2.53.7.7,0,0,1-.11.38.7.7,0,0,1-.3.26,4.69,4.69,0,0,1-2.15.51,5.1,5.1,0,0,1-2.34-.54,4.22,4.22,0,0,1-1.71-1.59,4.92,4.92,0,0,1-.63-2.55,4.7,4.7,0,0,1,.6-2.38,4.34,4.34,0,0,1,1.67-1.65,4.92,4.92,0,0,1,2.41-.59,4.59,4.59,0,0,1,2.14.51A.69.69,0,0,1,276.69,71.76Z"/><path class="cls-4" d="M283.79,78.49A.73.73,0,0,1,284,79a.69.69,0,0,1-.22.53.82.82,0,0,1-.57.21h-4.35a.79.79,0,0,1-.8-.8V71.45a.77.77,0,0,1,.23-.56.74.74,0,0,1,.57-.23h4.35a.82.82,0,0,1,.57.21.74.74,0,0,1,.22.55.67.67,0,0,1-.22.53.78.78,0,0,1-.57.2H279.7v2.21h2.94a.76.76,0,0,1,.56.22.76.76,0,0,1,0,1.08.84.84,0,0,1-.57.2H279.7v2.4h3.52A.79.79,0,0,1,283.79,78.49Z"/><path class="cls-4" d="M292.71,79.06a.74.74,0,0,1-.22.55.73.73,0,0,1-.51.21.66.66,0,0,1-.42-.14,1,1,0,0,1-.29-.39l-.68-1.57h-3.87L286,79.3a.76.76,0,0,1-.28.39.67.67,0,0,1-.41.13.69.69,0,0,1-.51-.18.67.67,0,0,1-.18-.49,1.18,1.18,0,0,1,0-.25l3.24-7.77a.86.86,0,0,1,.31-.41.7.7,0,0,1,.47-.11.75.75,0,0,1,.43.13.74.74,0,0,1,.3.39l3.2,7.61A1,1,0,0,1,292.71,79.06Zm-5.36-2.84H290l-1.31-3Z"/><path class="cls-4" d="M301.22,70.87a.72.72,0,0,1,.2.52V79a.79.79,0,0,1-.79.8,1.13,1.13,0,0,1-.36-.06.47.47,0,0,1-.25-.16l-4.78-6.06V79a.69.69,0,0,1-.2.52.69.69,0,0,1-.52.21.66.66,0,0,1-.51-.21.73.73,0,0,1-.2-.52V71.45a.77.77,0,0,1,.23-.56.74.74,0,0,1,.57-.23.84.84,0,0,1,.38.08.61.61,0,0,1,.28.2L300,77V71.39a.72.72,0,0,1,.2-.52.7.7,0,0,1,.52-.21A.64.64,0,0,1,301.22,70.87Z"/><path class="cls-4" d="M314.81,77.57a4.36,4.36,0,0,1-1.58,1.69,4.4,4.4,0,0,1-4.54,0,4.33,4.33,0,0,1-1.57-1.69,5.17,5.17,0,0,1,0-4.72,4.36,4.36,0,0,1,1.57-1.7,4.47,4.47,0,0,1,4.54,0,4.39,4.39,0,0,1,1.58,1.7,5.17,5.17,0,0,1,0,4.72Zm-1.47-3.94a2.89,2.89,0,0,0-1-1.13,2.56,2.56,0,0,0-1.41-.41,2.43,2.43,0,0,0-1.41.41,2.77,2.77,0,0,0-1,1.12,3.63,3.63,0,0,0-.35,1.59,3.56,3.56,0,0,0,.35,1.58,2.73,2.73,0,0,0,1,1.13,2.6,2.6,0,0,0,2.82,0,2.86,2.86,0,0,0,1-1.12,3.74,3.74,0,0,0,0-3.16Z"/><path class="cls-4" d="M323.46,75.55A2.27,2.27,0,0,1,323.9,77a2.45,2.45,0,0,1-.89,2.16,3.66,3.66,0,0,1-2.1.61h-3.24a.79.79,0,0,1-.57-.23.77.77,0,0,1-.22-.57V71.45a.77.77,0,0,1,.79-.79H321q2.46,0,2.46,2.31a1.93,1.93,0,0,1-.27,1,2,2,0,0,1-.8.71A2.62,2.62,0,0,1,323.46,75.55Zm-2-3.09a1,1,0,0,0-.75-.27h-2.14v2h2.18a1,1,0,0,0,.68-.26.88.88,0,0,0,.3-.7A1.07,1.07,0,0,0,321.46,72.46Zm.4,5.48a1.25,1.25,0,0,0,.35-1,1.06,1.06,0,0,0-.41-1,1.9,1.9,0,0,0-1-.24h-2.25v2.51h2.34A1.36,1.36,0,0,0,321.86,77.94Z"/><path class="cls-4" d="M326.65,79.65a3.78,3.78,0,0,1-1.36-.79.9.9,0,0,1-.35-.69.7.7,0,0,1,.22-.52.67.67,0,0,1,.53-.23.71.71,0,0,1,.44.15,3.82,3.82,0,0,0,1,.63,3.19,3.19,0,0,0,1.17.19,2.39,2.39,0,0,0,1.25-.32,1,1,0,0,0,.53-.81,1,1,0,0,0-.52-.91,4.4,4.4,0,0,0-1.65-.51c-1.9-.27-2.85-1.16-2.85-2.65a2.36,2.36,0,0,1,.43-1.42,2.64,2.64,0,0,1,1.17-.92,4,4,0,0,1,1.65-.32,4.87,4.87,0,0,1,1.54.24,4,4,0,0,1,1.2.65.88.88,0,0,1,.38.69.77.77,0,0,1-.22.53.71.71,0,0,1-.52.23.55.55,0,0,1-.35-.12,3.47,3.47,0,0,0-.95-.5,3.13,3.13,0,0,0-1.08-.23,2.19,2.19,0,0,0-1.27.31.92.92,0,0,0-.45.8.94.94,0,0,0,.46.84,4.45,4.45,0,0,0,1.45.47,7.57,7.57,0,0,1,1.79.5,2.34,2.34,0,0,1,1,.83,2.61,2.61,0,0,1,.34,1.4,2.38,2.38,0,0,1-.46,1.44,3.09,3.09,0,0,1-1.23,1,4.16,4.16,0,0,1-1.65.33A5.34,5.34,0,0,1,326.65,79.65Z"/><path class="cls-4" d="M338.87,78.49a.73.73,0,0,1,.22.53.69.69,0,0,1-.22.53.82.82,0,0,1-.57.21h-4.36a.79.79,0,0,1-.79-.8V71.45a.77.77,0,0,1,.23-.56.73.73,0,0,1,.56-.23h4.36a.82.82,0,0,1,.57.21.74.74,0,0,1,.22.55.67.67,0,0,1-.22.53.8.8,0,0,1-.57.2h-3.52v2.21h2.93a.77.77,0,0,1,.57.22.76.76,0,0,1,0,1.08.85.85,0,0,1-.58.2h-2.93v2.4h3.52A.79.79,0,0,1,338.87,78.49Z"/><path class="cls-4" d="M348,78.76a.64.64,0,0,1,.1.35.66.66,0,0,1-.16.43.75.75,0,0,1-.6.23,1.26,1.26,0,0,1-.57-.14,2.29,2.29,0,0,1-.93-2.17.94.94,0,0,0-.31-.74,1.24,1.24,0,0,0-.88-.28h-2.43V79a.85.85,0,0,1-.19.58.64.64,0,0,1-.5.22,1,1,0,0,1-.65-.23.69.69,0,0,1-.28-.57V71.45a.76.76,0,0,1,.22-.56.77.77,0,0,1,.57-.23h3.74a2.43,2.43,0,0,1,1.28.36,2.61,2.61,0,0,1,1,1,2.87,2.87,0,0,1,.36,1.43,2.56,2.56,0,0,1-.35,1.27,2.77,2.77,0,0,1-.91,1,2,2,0,0,1,.9,1.54,2.71,2.71,0,0,1,0,.4,4.37,4.37,0,0,0,.1.58.42.42,0,0,0,.23.26A.66.66,0,0,1,348,78.76Zm-2.48-3.88a1.61,1.61,0,0,0,.37-.59,2.32,2.32,0,0,0,.14-.8,1.67,1.67,0,0,0-.14-.67,1.54,1.54,0,0,0-.37-.49.7.7,0,0,0-.45-.18h-2.85V75.1h2.85A.62.62,0,0,0,345.51,74.88Z"/><path class="cls-4" d="M356.53,70.85a.71.71,0,0,1,.24.54.77.77,0,0,1-.08.35l-3.21,7.51a.86.86,0,0,1-.32.38.9.9,0,0,1-.44.13.84.84,0,0,1-.41-.14.77.77,0,0,1-.3-.36l-3.21-7.54a.73.73,0,0,1-.06-.32.69.69,0,0,1,.26-.57.83.83,0,0,1,.53-.21.72.72,0,0,1,.42.13.83.83,0,0,1,.3.38l2.61,6.14,2.39-6.14a.85.85,0,0,1,.3-.37.72.72,0,0,1,.42-.13A.79.79,0,0,1,356.53,70.85Z"/><path class="cls-4" d="M359.51,79.53a.83.83,0,0,1-1.15,0,.77.77,0,0,1-.22-.57V71.45a.73.73,0,0,1,.23-.56.81.81,0,0,1,.6-.23.79.79,0,0,1,.79.79V79A.72.72,0,0,1,359.51,79.53Z"/><path class="cls-4" d="M369.12,70.87a.72.72,0,0,1,.2.52V79a.79.79,0,0,1-.8.8,1,1,0,0,1-.35-.06.51.51,0,0,1-.26-.16l-4.77-6.06V79a.73.73,0,0,1-.2.52.69.69,0,0,1-.53.21.64.64,0,0,1-.5-.21.73.73,0,0,1-.2-.52V71.45a.77.77,0,0,1,.23-.56.73.73,0,0,1,.56-.23.91.91,0,0,1,.39.08.67.67,0,0,1,.28.2l4.73,6V71.39a.72.72,0,0,1,.2-.52.69.69,0,0,1,.51-.21A.66.66,0,0,1,369.12,70.87Z"/><path class="cls-4" d="M378.53,75.07a.77.77,0,0,1,.22.57v2.75a.76.76,0,0,1-.4.7,5.18,5.18,0,0,1-2.79.8,4.75,4.75,0,0,1-4.11-2.34,4.43,4.43,0,0,1-.64-2.34,4.49,4.49,0,0,1,.64-2.35,4.77,4.77,0,0,1,4.11-2.33,4.54,4.54,0,0,1,2.23.52.69.69,0,0,1,.29.27.65.65,0,0,1,.1.36.84.84,0,0,1-.21.57.69.69,0,0,1-.53.24,1.06,1.06,0,0,1-.43-.1,3.66,3.66,0,0,0-1.45-.3,3,3,0,0,0-1.54.42,3,3,0,0,0-1.11,1.14,3.08,3.08,0,0,0-.41,1.56,3.13,3.13,0,0,0,.41,1.56A3.19,3.19,0,0,0,374,77.91a3,3,0,0,0,1.54.42,4.42,4.42,0,0,0,.78-.07,4,4,0,0,0,.72-.17V76.4h-1.22a.76.76,0,0,1-.56-.22.7.7,0,0,1-.23-.56.73.73,0,0,1,.23-.56.8.8,0,0,1,.56-.22H378A.74.74,0,0,1,378.53,75.07Z"/><path class="cls-4" d="M385.21,79.65a3.78,3.78,0,0,1-1.36-.79.93.93,0,0,1-.35-.69.7.7,0,0,1,.22-.52.72.72,0,0,1,1-.08,3.82,3.82,0,0,0,1,.63,3.19,3.19,0,0,0,1.17.19,2.39,2.39,0,0,0,1.25-.32,1,1,0,0,0,.53-.81,1,1,0,0,0-.52-.91,4.4,4.4,0,0,0-1.65-.51c-1.9-.27-2.85-1.16-2.85-2.65a2.36,2.36,0,0,1,.43-1.42,2.76,2.76,0,0,1,1.17-.92,4,4,0,0,1,1.65-.32,4.82,4.82,0,0,1,1.54.24,4,4,0,0,1,1.2.65.85.85,0,0,1,.38.69.73.73,0,0,1-.22.53.71.71,0,0,1-.52.23.55.55,0,0,1-.35-.12,3.54,3.54,0,0,0-.94-.5,3.23,3.23,0,0,0-1.09-.23,2.21,2.21,0,0,0-1.27.31.94.94,0,0,0-.44.8.92.92,0,0,0,.46.84,4.29,4.29,0,0,0,1.45.47,7.61,7.61,0,0,1,1.78.5,2.28,2.28,0,0,1,1,.83,2.52,2.52,0,0,1,.34,1.4,2.32,2.32,0,0,1-.46,1.44,3.09,3.09,0,0,1-1.23,1,4.12,4.12,0,0,1-1.65.33A5.34,5.34,0,0,1,385.21,79.65Z"/><path class="cls-4" d="M398,71.91l-2.71,3.88V79a.81.81,0,0,1-.22.57.74.74,0,0,1-.54.23.76.76,0,0,1-.55-.23.78.78,0,0,1-.23-.57V75.61L391,72a1,1,0,0,1-.24-.61.71.71,0,0,1,.27-.56.84.84,0,0,1,.57-.23.78.78,0,0,1,.63.36l2.29,3.16L396.67,71a.78.78,0,0,1,.65-.39.74.74,0,0,1,.54.23.78.78,0,0,1,.24.57A.86.86,0,0,1,398,71.91Z"/><path class="cls-4" d="M400.2,79.65a3.78,3.78,0,0,1-1.36-.79.9.9,0,0,1-.35-.69.7.7,0,0,1,.22-.52.72.72,0,0,1,1-.08,3.82,3.82,0,0,0,1,.63,3.19,3.19,0,0,0,1.17.19,2.39,2.39,0,0,0,1.25-.32,1,1,0,0,0,.53-.81,1,1,0,0,0-.52-.91,4.4,4.4,0,0,0-1.65-.51c-1.9-.27-2.85-1.16-2.85-2.65a2.36,2.36,0,0,1,.43-1.42,2.64,2.64,0,0,1,1.17-.92,4,4,0,0,1,1.65-.32,4.82,4.82,0,0,1,1.54.24,4,4,0,0,1,1.2.65.88.88,0,0,1,.38.69.73.73,0,0,1-.22.53.71.71,0,0,1-.52.23.55.55,0,0,1-.35-.12,3.47,3.47,0,0,0-1-.5,3.13,3.13,0,0,0-1.08-.23,2.19,2.19,0,0,0-1.27.31.92.92,0,0,0-.45.8.94.94,0,0,0,.46.84,4.44,4.44,0,0,0,1.46.47,7.61,7.61,0,0,1,1.78.5,2.34,2.34,0,0,1,1,.83,2.61,2.61,0,0,1,.34,1.4,2.38,2.38,0,0,1-.46,1.44,3.09,3.09,0,0,1-1.23,1,4.12,4.12,0,0,1-1.65.33A5.34,5.34,0,0,1,400.2,79.65Z"/><path class="cls-4" d="M413.26,70.87a.72.72,0,0,1,.22.54.71.71,0,0,1-.22.54.8.8,0,0,1-.58.2h-2V79a.75.75,0,0,1-.24.57.9.9,0,0,1-.62.23.81.81,0,0,1-.59-.23A.75.75,0,0,1,409,79V72.15h-2a.8.8,0,0,1-.57-.21.69.69,0,0,1-.22-.54.64.64,0,0,1,.23-.53.79.79,0,0,1,.56-.21h5.77A.81.81,0,0,1,413.26,70.87Z"/><path class="cls-4" d="M420.55,78.49a.74.74,0,0,1,.23.53.7.7,0,0,1-.23.53.79.79,0,0,1-.56.21h-4.36a.79.79,0,0,1-.79-.8V71.45a.77.77,0,0,1,.23-.56.73.73,0,0,1,.56-.23H420a.79.79,0,0,1,.56.21.75.75,0,0,1,.23.55.67.67,0,0,1-.22.53.8.8,0,0,1-.57.2h-3.53v2.21h2.94a.77.77,0,0,1,.57.22.76.76,0,0,1,0,1.08.85.85,0,0,1-.58.2h-2.94v2.4H420A.77.77,0,0,1,420.55,78.49Z"/><path class="cls-4" d="M430.73,70.87a.75.75,0,0,1,.24.57V79a.77.77,0,0,1-.22.57.78.78,0,0,1-.58.23.82.82,0,0,1-.59-.22.75.75,0,0,1-.23-.58V73.73L427.2,77a.81.81,0,0,1-.3.25.71.71,0,0,1-.69,0,.86.86,0,0,1-.29-.25l-2.15-3.39V79a.81.81,0,0,1-.21.58.74.74,0,0,1-.54.22.71.71,0,0,1-.54-.23.8.8,0,0,1-.2-.57V71.44a.76.76,0,0,1,.24-.56.78.78,0,0,1,.57-.24.94.94,0,0,1,.39.1.7.7,0,0,1,.3.26l2.84,4.35L429.53,71a.8.8,0,0,1,.64-.36A.8.8,0,0,1,430.73,70.87Z"/></g></g></svg>